<svg width="77" height="77" viewBox="0 0 77 77" fill="none" xmlns="http://www.w3.org/2000/svg">
<circle cx="38.5" cy="38.5" r="38.5" fill="url(#paint0_linear)"/>
<path d="M53.653 37.4035C53.0509 36.4997 52.0304 36.2785 50.9221 36.8109L43.1142 40.3213C43.118 39.6505 43.121 39.6792 43.1163 39.6316C42.981 38.2415 41.9403 37.134 40.5858 36.9383C40.5816 36.9377 40.5773 36.9371 40.5732 36.9366L35.3997 36.3283C34.3049 36.1691 33.7699 35.7976 32.7508 35.189C31.2808 34.311 29.6071 33.8408 27.9051 33.8248V33.5582C27.9051 32.7817 27.2863 32.15 26.5259 32.15H24.3791C23.6187 32.15 23 32.7817 23 33.5582V44.0732C23 44.8497 23.6187 45.4815 24.3791 45.4815H26.5259C27.2863 45.4815 27.9051 44.8497 27.9051 44.0732V43.9695L32.5584 45.7381C33.1902 45.9783 33.8523 46.1 34.5265 46.1H41.5042C43.8861 46.1 44.4027 45.0821 53.2397 40.1716C53.8468 39.8216 54.3706 38.4803 53.653 37.4035V37.4035ZM52.708 39.3298C43.8232 44.2981 43.461 45.1 41.5042 45.1H34.5265C33.9694 45.1 33.4222 44.9994 32.9001 44.8009L27.9051 42.9025V38.7581C27.9051 38.482 27.6859 38.2581 27.4154 38.2581C27.1449 38.2581 26.9258 38.482 26.9258 38.7581V44.0733C26.9258 44.2984 26.7464 44.4816 26.5259 44.4816H24.3791C24.1587 44.4816 23.9793 44.2984 23.9793 44.0733V33.5583C23.9793 33.3332 24.1587 33.15 24.3791 33.15H26.5259C26.7464 33.15 26.9258 33.3332 26.9258 33.5583V36.4401C26.9258 36.7163 27.1449 36.9401 27.4154 36.9401C27.6859 36.9401 27.9051 36.7163 27.9051 36.4401V34.825C29.4335 34.8409 30.9361 35.2637 32.2563 36.0523C33.3278 36.6923 33.9809 37.1335 35.2686 37.3195C35.2728 37.3201 35.2771 37.3207 35.2812 37.3211L40.4544 37.9293C41.3498 38.0614 42.0389 38.7892 42.1392 39.7056L42.1329 40.5903H36.3324C36.0619 40.5903 35.8427 40.8142 35.8427 41.0903C35.8427 41.3665 36.0619 41.5903 36.3324 41.5903H42.619C42.8389 41.5903 42.3978 41.7175 51.3225 37.7236C51.3265 37.7218 51.3305 37.72 51.3345 37.718C51.7982 37.4941 52.4364 37.3553 52.8434 37.9661C53.1287 38.3943 53.0687 38.972 52.708 39.3298V39.3298Z" fill="white"/>
<g clip-path="url(#clip0)">
<path d="M49.9452 21.4783C50.0232 21.4026 50.0838 21.3109 50.1229 21.2095C50.162 21.1081 50.1786 20.9995 50.1717 20.8911C50.1648 20.7826 50.1344 20.677 50.0828 20.5814C50.0311 20.4859 49.9593 20.4026 49.8724 20.3375C46.5678 17.9349 42.5857 16.6437 38.5 16.65C34.2515 16.65 30.3207 18.0171 27.1277 20.3375C27.0406 20.4025 26.9687 20.4856 26.9169 20.5812C26.8651 20.6767 26.8346 20.7823 26.8275 20.8907C26.8204 20.9991 26.837 21.1078 26.8759 21.2092C26.9149 21.3107 26.9754 21.4025 27.0533 21.4783C27.1887 21.6117 27.3671 21.6927 27.5567 21.7069C27.7464 21.7211 27.9348 21.6675 28.0887 21.5558C31.1191 19.3687 34.7628 18.1943 38.5 18.2C42.3859 18.2 45.9819 19.4431 48.9098 21.5542C49.2276 21.7836 49.6693 21.7557 49.9452 21.4783V21.4783Z" fill="white"/>
<path d="M46.605 24.82C46.6848 24.743 46.7465 24.6491 46.7856 24.5452C46.8246 24.4413 46.84 24.33 46.8307 24.2195C46.8213 24.1089 46.7874 24.0018 46.7315 23.9059C46.6756 23.81 46.599 23.7278 46.5073 23.6653C44.124 22.1171 41.342 21.2953 38.5 21.3C35.5473 21.3 32.796 22.168 30.4927 23.6653C30.4006 23.7275 30.3235 23.8095 30.2673 23.9054C30.211 24.0013 30.1769 24.1085 30.1676 24.2193C30.1582 24.3301 30.1738 24.4415 30.2131 24.5455C30.2525 24.6494 30.3147 24.7433 30.3951 24.82C30.5271 24.9489 30.6991 25.0291 30.8827 25.0474C31.0664 25.0657 31.2508 25.0211 31.4057 24.9208C33.523 23.5646 35.9856 22.8458 38.5 22.85C41.0139 22.8461 43.4759 23.5649 45.5928 24.9208C45.9121 25.1254 46.3368 25.0882 46.605 24.82V24.82ZM43.2213 28.2037C43.5716 27.8534 43.5081 27.2659 43.0663 27.0412C41.6519 26.3214 40.087 25.9475 38.5 25.95C36.857 25.95 35.3039 26.3437 33.9337 27.0412C33.492 27.2659 33.4284 27.8534 33.7787 28.2037L33.802 28.2269C34.05 28.4749 34.4328 28.5214 34.749 28.3664C35.9165 27.7942 37.1998 27.4978 38.5 27.5C39.8454 27.5 41.1195 27.8115 42.251 28.368C42.5657 28.523 42.9485 28.4765 43.1965 28.2269L43.2213 28.2037ZM40.143 31.282C40.4468 30.9782 40.4499 30.476 40.081 30.259C39.6028 29.9744 39.0565 29.8244 38.5 29.825C37.9435 29.8244 37.3972 29.9744 36.919 30.259C36.5501 30.476 36.5532 30.9782 36.857 31.282L37.9513 32.3763C38.0967 32.5216 38.2937 32.6032 38.4992 32.6032C38.7047 32.6032 38.9018 32.5216 39.0472 32.3763L40.143 31.2804V31.282Z" fill="white"/>
</g>
<rect x="20" y="51" width="37" height="13" rx="6" fill="white"/>
<path d="M28.4849 59.3828C28.4849 59.0635 28.3984 58.8188 28.2256 58.6489C28.0527 58.479 27.7407 58.3135 27.2896 58.1523C26.8384 57.9912 26.4927 57.8228 26.2524 57.647C26.0151 57.4683 25.8364 57.2661 25.7163 57.0405C25.5991 56.812 25.5405 56.5513 25.5405 56.2583C25.5405 55.7515 25.709 55.334 26.0459 55.0059C26.3857 54.6777 26.8296 54.5137 27.3774 54.5137C27.7524 54.5137 28.0864 54.5986 28.3794 54.7686C28.6724 54.9355 28.8979 55.1685 29.0562 55.4673C29.2144 55.7661 29.2935 56.0942 29.2935 56.4517H28.4849C28.4849 56.0562 28.3896 55.75 28.1992 55.5332C28.0088 55.3164 27.7349 55.208 27.3774 55.208C27.0522 55.208 26.8003 55.2988 26.6216 55.4805C26.4429 55.6621 26.3535 55.917 26.3535 56.2451C26.3535 56.5146 26.4502 56.7402 26.6436 56.9219C26.8369 57.1035 27.1357 57.2661 27.54 57.4097C28.1699 57.6177 28.6196 57.874 28.8892 58.1787C29.1616 58.4834 29.2979 58.8818 29.2979 59.374C29.2979 59.8926 29.1294 60.3086 28.7925 60.6221C28.4556 60.9326 27.9971 61.0879 27.417 61.0879C27.0449 61.0879 26.7007 61.0073 26.3843 60.8462C26.0708 60.6821 25.8232 60.4536 25.6416 60.1606C25.4629 59.8647 25.3735 59.5264 25.3735 59.1455H26.1821C26.1821 59.541 26.292 59.8486 26.5117 60.0684C26.7344 60.2881 27.0361 60.3979 27.417 60.3979C27.7715 60.3979 28.0381 60.3071 28.2168 60.1255C28.3955 59.9438 28.4849 59.6963 28.4849 59.3828ZM31.0249 56.7329C31.3208 56.3491 31.6987 56.1572 32.1587 56.1572C32.9995 56.1572 33.4258 56.7183 33.4375 57.8403V61H32.6641V57.8755C32.6641 57.5034 32.6011 57.2397 32.4751 57.0845C32.3521 56.9263 32.166 56.8472 31.917 56.8472C31.7236 56.8472 31.5493 56.9116 31.394 57.0405C31.2417 57.1694 31.1187 57.3379 31.0249 57.5459V61H30.2471V54.25H31.0249V56.7329ZM37.0454 61C36.9985 60.8975 36.9648 60.7246 36.9443 60.4814C36.6689 60.8857 36.3174 61.0879 35.8896 61.0879C35.459 61.0879 35.1221 60.9678 34.8789 60.7275C34.6387 60.4844 34.5186 60.1431 34.5186 59.7036C34.5186 59.2202 34.6826 58.8364 35.0107 58.5522C35.3389 58.2681 35.7886 58.123 36.3599 58.1172H36.9312V57.6118C36.9312 57.3276 36.8682 57.1255 36.7422 57.0054C36.6162 56.8853 36.4243 56.8252 36.1665 56.8252C35.9321 56.8252 35.7417 56.8955 35.5952 57.0361C35.4487 57.1738 35.3755 57.3496 35.3755 57.5635H34.5977C34.5977 57.3203 34.6694 57.0889 34.813 56.8691C34.9565 56.6465 35.1499 56.4722 35.3931 56.3462C35.6362 56.2202 35.9072 56.1572 36.2061 56.1572C36.6924 56.1572 37.0615 56.2788 37.3135 56.522C37.5684 56.7622 37.6987 57.1138 37.7046 57.5767V59.9761C37.7075 60.3423 37.7573 60.6602 37.854 60.9297V61H37.0454ZM36.0083 60.3804C36.1987 60.3804 36.3804 60.3276 36.5532 60.2222C36.7261 60.1167 36.8521 59.9849 36.9312 59.8267V58.6929H36.4917C36.1226 58.6987 35.8311 58.7822 35.6172 58.9434C35.4033 59.1016 35.2964 59.3242 35.2964 59.6113C35.2964 59.8809 35.3506 60.0771 35.459 60.2002C35.5674 60.3203 35.7505 60.3804 36.0083 60.3804ZM40.8774 56.9746C40.769 56.9541 40.6519 56.9438 40.5259 56.9438C40.1274 56.9438 39.8491 57.1621 39.6909 57.5986V61H38.9131V56.2451H39.6689L39.6821 56.7285C39.8901 56.3477 40.1846 56.1572 40.5654 56.1572C40.6885 56.1572 40.791 56.1777 40.873 56.2188L40.8774 56.9746ZM43.2681 61.0879C42.6763 61.0879 42.2222 60.9121 41.9058 60.5605C41.5894 60.2061 41.4282 59.6875 41.4224 59.0049V58.4292C41.4224 57.7202 41.5762 57.165 41.8838 56.7637C42.1943 56.3594 42.6265 56.1572 43.1802 56.1572C43.7368 56.1572 44.1528 56.3345 44.4282 56.689C44.7036 57.0435 44.8442 57.5957 44.8501 58.3457V58.8555H42.1958V58.9653C42.1958 59.4751 42.291 59.8457 42.4814 60.0771C42.6748 60.3086 42.9517 60.4243 43.312 60.4243C43.5405 60.4243 43.7412 60.3818 43.9141 60.2969C44.0898 60.209 44.2539 60.0713 44.4062 59.8838L44.8105 60.376C44.4736 60.8506 43.9595 61.0879 43.2681 61.0879ZM43.1802 56.8252C42.8579 56.8252 42.6191 56.9365 42.4639 57.1592C42.3086 57.3789 42.2207 57.7217 42.2002 58.1875H44.0723V58.082C44.0518 57.6309 43.9697 57.3086 43.8262 57.1152C43.6855 56.9219 43.4702 56.8252 43.1802 56.8252ZM48.8623 58.1743H46.7002V61H45.896V54.6016H49.2271V55.2959H46.7002V57.4844H48.8623V58.1743ZM50.9497 61H50.1719V56.2451H50.9497V61ZM51.0112 54.9839C51.0112 55.1157 50.9746 55.2256 50.9014 55.3135C50.8281 55.4014 50.7168 55.4453 50.5674 55.4453C50.4209 55.4453 50.311 55.4014 50.2378 55.3135C50.1646 55.2256 50.1279 55.1157 50.1279 54.9839C50.1279 54.8521 50.1646 54.7407 50.2378 54.6499C50.311 54.5591 50.4209 54.5137 50.5674 54.5137C50.7139 54.5137 50.8237 54.5605 50.897 54.6543C50.9731 54.7451 51.0112 54.855 51.0112 54.9839Z" fill="#FB3640"/>
<defs>
<linearGradient id="paint0_linear" x1="38.5" y1="0" x2="38.5" y2="77" gradientUnits="userSpaceOnUse">
<stop stop-color="#FB3640"/>
<stop offset="1" stop-color="#FB367D"/>
</linearGradient>
<clipPath id="clip0">
<rect width="24.8" height="24.8" fill="white" transform="translate(26.1 12)"/>
</clipPath>
</defs>
</svg>
